<?xml version="1.0" encoding="UTF-8"?>
<svg width="54px" height="54px" viewBox="0 0 54 54" version="1.1" xmlns="http://www.w3.org/2000/svg" xmlns:xlink="http://www.w3.org/1999/xlink">
    <!-- Generator: sketchtool 40.1 (33804) - http://www.bohemiancoding.com/sketch -->
    <title>29385557-FE5F-4AB0-824C-634DB389783B</title>
    <desc>Created with sketchtool.</desc>
    <defs></defs>
    <g id="Mobile" stroke="none" stroke-width="1" fill="none" fill-rule="evenodd">
        <g id="terria-io-mobile-homepage-copy" transform="translate(-161.000000, -574.000000)">
            <g id="Group-25" transform="translate(188.000000, 601.000000) rotate(-270.000000) translate(-188.000000, -601.000000) translate(162.000000, 575.000000)">
                <circle id="Oval-5" stroke-opacity="0.0549139493" stroke="#3F4854" stroke-width="0.693333333" fill="#FFFFFF" cx="26" cy="26" r="26"></circle>
                <path d="M40.72753,27.3592612 C40.7547979,27.314604 40.7794778,27.268472 40.801477,27.2210036 C40.8177916,27.1757012 40.8317029,27.1295231 40.8430722,27.082746 C40.8430722,27.0412687 40.8708024,27.0044 40.8800457,26.9629227 C40.9155403,26.784939 40.9155403,26.6017016 40.8800457,26.423718 C40.8800457,26.3822407 40.8569373,26.345372 40.8430722,26.3038947 C40.8317029,26.2571175 40.8177916,26.2109395 40.801477,26.1656371 C40.7794778,26.1181686 40.7547979,26.0720367 40.72753,26.0273795 C40.72753,25.9951193 40.6951781,25.9582506 40.6720697,25.9259905 C40.6207227,25.8496723 40.5618886,25.778654 40.4964455,25.7139955 L29.4043894,14.6533859 C29.0587332,14.2835007 28.5381922,14.131279 28.0469528,14.2563561 C27.5557134,14.3814792 27.1721131,14.7639459 27.0466342,15.2538387 C26.9212016,15.7436855 27.073856,16.2627507 27.4447928,16.6074269 L36.1705436,25.3130484 L11.786507,25.3130484 C11.0207623,25.3130484 10.4,25.9320739 10.4,26.6956246 C10.4,27.4592215 11.0207623,28.0782008 11.786507,28.0782008 L36.1705436,28.0782008 L27.4447928,36.7792137 C27.073856,37.12389 26.9211553,37.642969 27.0466342,38.132825 C27.1720669,38.6226856 27.5556672,39.0051983 28.0469528,39.130303 C28.5381922,39.2554031 29.0587332,39.1031446 29.4043894,38.7332594 L40.4964455,27.6726451 C40.5618886,27.6079867 40.6207227,27.5369683 40.6720697,27.4606501 C40.6720697,27.42839 40.7090432,27.3915213 40.72753,27.3592612 Z" id="Page-1" fill="#3F4854"></path>
            </g>
        </g>
    </g>
</svg>