<svg xmlns="http://www.w3.org/2000/svg" width="56" height="56" viewBox="0 0 56 56">
  <g fill="none" fill-rule="evenodd" transform="translate(2 2)">
    <path stroke="#12C9A0" stroke-width="3" d="M0,26 C0,40.3594035 11.6405965,52 26,52 C40.3594035,52 52,40.3594035 52,26 C52,11.6405965 40.3594035,0 26,0 C11.6405965,0 0,11.6405965 0,26 L0,26 Z"/>
    <path fill="#12C9A0" d="M25.3140721,40.72753 C25.3587293,40.7547979 25.4048613,40.7794778 25.4523298,40.801477 C25.4976322,40.8177916 25.5438102,40.8317029 25.5905874,40.8430722 C25.6320647,40.8430722 25.6689334,40.8708024 25.7104106,40.8800457 C25.8883943,40.9155403 26.0716317,40.9155403 26.2496154,40.8800457 C26.2910926,40.8800457 26.3279613,40.8569373 26.3694386,40.8430722 C26.4162158,40.8317029 26.4623938,40.8177916 26.5076963,40.801477 C26.5551647,40.7794778 26.6012967,40.7547979 26.6459539,40.72753 C26.678214,40.72753 26.7150827,40.6951781 26.7473428,40.6720697 C26.823661,40.6207227 26.8946793,40.5618886 26.9593378,40.4964455 L38.0199475,29.4043894 C38.3898327,29.0587332 38.5420543,28.5381922 38.4169773,28.0469528 C38.2918541,27.5557134 37.9093874,27.1721131 37.4194946,27.0466342 C36.9296479,26.9212016 36.4105827,27.073856 36.0659064,27.4447928 L27.3602849,36.1705436 L27.3602849,11.786507 C27.3602849,11.0207623 26.7412595,10.4 25.9777087,10.4 C25.2141119,10.4 24.5951325,11.0207623 24.5951325,11.786507 L24.5951325,36.1705436 L15.8941196,27.4447928 C15.5494433,27.073856 15.0303643,26.9211553 14.5405084,27.0466342 C14.0506478,27.1720669 13.668135,27.5556672 13.5430303,28.0469528 C13.4179302,28.5381922 13.5701887,29.0587332 13.9400739,29.4043894 L25.0006882,40.4964455 C25.0653467,40.5618886 25.136365,40.6207227 25.2126832,40.6720697 C25.2449433,40.6720697 25.281812,40.7090432 25.3140721,40.72753 L25.3140721,40.72753 Z"/>
  </g>
</svg>
