<?xml version="1.0" encoding="UTF-8" standalone="no"?>
<svg width="56px" height="56px" viewBox="0 0 56 56" version="1.1" xmlns="http://www.w3.org/2000/svg" xmlns:xlink="http://www.w3.org/1999/xlink">
    <!-- Generator: Sketch 39.1 (31720) - http://www.bohemiancoding.com/sketch -->
    <title>button-arrow-right</title>
    <desc>Created with Sketch.</desc>
    <defs></defs>
    <g id="Mobile" stroke="none" stroke-width="1" fill="none" fill-rule="evenodd">
        <g id="terria-io---homepage-copy-12" transform="translate(-1191.000000, -2729.000000)">
            <g id="Group-31" transform="translate(0.000000, 2510.000000)">
                <g id="button-arrow-right" transform="translate(1193.000000, 221.000000)">
                    <circle id="Oval-5" stroke="#3F4854" stroke-width="3" fill="#FFFFFF" cx="26" cy="26" r="26"></circle>
                    <path d="M40.72753,26.6459279 C40.7547979,26.6012707 40.7794778,26.5551387 40.801477,26.5076702 C40.8177916,26.4623678 40.8317029,26.4161898 40.8430722,26.3694126 C40.8430722,26.3279353 40.8708024,26.2910666 40.8800457,26.2495894 C40.9155403,26.0716057 40.9155403,25.8883683 40.8800457,25.7103846 C40.8800457,25.6689074 40.8569373,25.6320387 40.8430722,25.5905614 C40.8317029,25.5437842 40.8177916,25.4976062 40.801477,25.4523037 C40.7794778,25.4048353 40.7547979,25.3587033 40.72753,25.3140461 C40.72753,25.281786 40.6951781,25.2449173 40.6720697,25.2126572 C40.6207227,25.136339 40.5618886,25.0653207 40.4964455,25.0006622 L29.4043894,13.9400525 C29.0587332,13.5701673 28.5381922,13.4179457 28.0469528,13.5430227 C27.5557134,13.6681459 27.1721131,14.0506126 27.0466342,14.5405054 C26.9212016,15.0303521 27.073856,15.5494173 27.4447928,15.8940936 L36.1705436,24.5997151 L11.786507,24.5997151 C11.0207623,24.5997151 10.4,25.2187405 10.4,25.9822913 C10.4,26.7458881 11.0207623,27.3648675 11.786507,27.3648675 L36.1705436,27.3648675 L27.4447928,36.0658804 C27.073856,36.4105567 26.9211553,36.9296357 27.0466342,37.4194916 C27.1720669,37.9093522 27.5556672,38.291865 28.0469528,38.4169697 C28.5381922,38.5420698 29.0587332,38.3898113 29.4043894,38.0199261 L40.4964455,26.9593118 C40.5618886,26.8946533 40.6207227,26.823635 40.6720697,26.7473168 C40.6720697,26.7150567 40.7090432,26.678188 40.72753,26.6459279 Z" id="Page-1" fill="#3F4854"></path>
                </g>
            </g>
        </g>
    </g>
</svg>