<?xml version="1.0" encoding="UTF-8" standalone="no"?>
<svg width="56px" height="56px" viewBox="0 0 56 56" version="1.1" xmlns="http://www.w3.org/2000/svg" xmlns:xlink="http://www.w3.org/1999/xlink">
    <!-- Generator: Sketch 39.1 (31720) - http://www.bohemiancoding.com/sketch -->
    <title>button-arrow-left</title>
    <desc>Created with Sketch.</desc>
    <defs></defs>
    <g id="Mobile" stroke="none" stroke-width="1" fill="none" fill-rule="evenodd">
        <g id="terria-io---homepage-copy-12" transform="translate(-1191.000000, -2659.000000)">
            <g id="Group-31" transform="translate(0.000000, 2510.000000)">
                <g id="button-arrow-left" transform="translate(1193.000000, 151.000000)">
                    <path d="M26,52 C11.6405965,52 0,40.3594035 0,26 C0,11.6405965 11.6405965,0 26,0 C40.3594035,0 52,11.6405965 52,26 C52,40.3594035 40.3594035,52 26,52 L26,52 Z" id="Oval-5" stroke="#3F4854" stroke-width="3" fill="#FFFFFF"></path>
                    <path d="M11.27247,26.6459279 C11.2452021,26.6012707 11.2205222,26.5551387 11.198523,26.5076702 C11.1822084,26.4623678 11.1682971,26.4161898 11.1569278,26.3694126 C11.1569278,26.3279353 11.1291976,26.2910666 11.1199543,26.2495894 C11.0844597,26.0716057 11.0844597,25.8883683 11.1199543,25.7103846 C11.1199543,25.6689074 11.1430627,25.6320387 11.1569278,25.5905614 C11.1682971,25.5437842 11.1822084,25.4976062 11.198523,25.4523037 C11.2205222,25.4048353 11.2452021,25.3587033 11.27247,25.3140461 C11.27247,25.281786 11.3048219,25.2449173 11.3279303,25.2126572 C11.3792773,25.136339 11.4381114,25.0653207 11.5035545,25.0006622 L22.5956106,13.9400525 C22.9412668,13.5701673 23.4618078,13.4179457 23.9530472,13.5430227 C24.4442866,13.6681459 24.8278869,14.0506126 24.9533658,14.5405054 C25.0787984,15.0303521 24.926144,15.5494173 24.5552072,15.8940936 L15.8294564,24.5997151 L40.213493,24.5997151 C40.9792377,24.5997151 41.6,25.2187405 41.6,25.9822913 C41.6,26.7458881 40.9792377,27.3648675 40.213493,27.3648675 L15.8294564,27.3648675 L24.5552072,36.0658804 C24.926144,36.4105567 25.0788447,36.9296357 24.9533658,37.4194916 C24.8279331,37.9093522 24.4443328,38.291865 23.9530472,38.4169697 C23.4618078,38.5420698 22.9412668,38.3898113 22.5956106,38.0199261 L11.5035545,26.9593118 C11.4381114,26.8946533 11.3792773,26.823635 11.3279303,26.7473168 C11.3279303,26.7150567 11.2909568,26.678188 11.27247,26.6459279 L11.27247,26.6459279 Z" id="Page-1" fill="#3F4854"></path>
                </g>
            </g>
        </g>
    </g>
</svg>