<?xml version="1.0" encoding="UTF-8"?>
<svg width="118px" height="116px" viewBox="0 0 118 116" version="1.1" xmlns="http://www.w3.org/2000/svg" xmlns:xlink="http://www.w3.org/1999/xlink">
    <!-- Generator: sketchtool 40 (33762) - http://www.bohemiancoding.com/sketch -->
    <title>2AEFA2FF-D938-4EAF-B1CE-98B0AA651076</title>
    <desc>Created with sketchtool.</desc>
    <defs></defs>
    <g id="Desktop" stroke="none" stroke-width="1" fill="none" fill-rule="evenodd">
        <g id="terria-io-web-homepage-copy-7" transform="translate(-196.000000, -2189.000000)">
            <g id="Group-24" transform="translate(126.000000, 1807.000000)">
                <g id="Group-16" transform="translate(0.000000, 384.000000)">
                    <g id="GitHub-Copy" transform="translate(72.000000, 0.000000)">
                        <g id="Group">
                            <path d="M0,57.2280862 C0,82.5259322 16.395305,103.93909 39.1402369,111.518969 C41.9833533,112.08746 43.0258294,110.287239 43.0258294,108.771263 C43.0258294,107.444784 42.9310588,102.896857 42.9310588,98.1594326 C27.0096066,101.570378 23.6926373,91.3375415 23.6926373,91.3375415 C21.1338325,84.7051474 17.3430105,82.9996746 17.3430105,82.9996746 C12.1306303,79.4939806 17.7220927,79.4939806 17.7220927,79.4939806 C23.5030962,79.8729746 26.5357538,85.3683868 26.5357538,85.3683868 C31.6533635,94.0852476 39.8984013,91.6217869 43.2153705,90.1058112 C43.6892232,86.4106202 45.205552,83.852411 46.8166514,82.4311837 C34.1173978,81.1047049 20.7547503,76.1777836 20.7547503,54.1961346 C20.7547503,47.9427344 23.0292435,42.8263161 26.6305244,38.8468797 C26.0619011,37.4256524 24.0717195,31.5512462 27.1991477,23.6871218 C27.1991477,23.6871218 32.0324457,22.171146 42.9310588,29.5615279 C47.4800452,28.3297976 52.4081138,27.6665582 57.2414118,27.6665582 C62.0747098,27.6665582 67.0027784,28.3297976 71.5517647,29.5615279 C82.4503779,22.171146 87.2836759,23.6871218 87.2836759,23.6871218 C90.411104,31.5512462 88.4209225,37.4256524 87.8522992,38.8468797 C91.5483506,42.8263161 93.7280733,47.9427344 93.7280733,54.1961346 C93.7280733,76.1777836 80.3654258,81.0099564 67.5714017,82.4311837 C69.6563537,84.231405 71.4569942,87.6423505 71.4569942,93.0430143 C71.4569942,100.717642 71.3622236,106.876293 71.3622236,108.771263 C71.3622236,110.287239 72.4046997,112.08746 75.2478162,111.518969 C97.992748,103.93909 114.388053,82.5259322 114.388053,57.2280862 C114.482824,25.5820915 88.8000047,0 57.2414118,0 C25.5880483,0 0,25.5820915 0,57.2280862 Z" id="Shape" stroke="#3F4854" stroke-width="3.2"></path>
                            <path d="M21.7024558,83.2956562 C21.6076852,83.5799017 21.1338325,83.6746501 20.7547503,83.4851532 C20.3756681,83.2956562 20.0913565,82.9166622 20.2808976,82.6324168 C20.3756681,82.3481713 20.8495208,82.2534228 21.228603,82.4429198 C21.6076852,82.6324168 21.7972263,83.0114107 21.7024558,83.2956562 L21.7024558,83.2956562 L21.7024558,83.2956562 Z" id="Shape" fill="#3F4854"></path>
                            <path d="M23.976949,85.8538653 C23.6926373,86.1381108 23.124014,85.9486138 22.8397024,85.5696199 C22.4606202,85.1906259 22.3658496,84.622135 22.6501613,84.3378896 C22.9344729,84.0536441 23.4083257,84.2431411 23.7874079,84.622135 C24.1664901,85.0958774 24.2612606,85.6643684 23.976949,85.8538653 L23.976949,85.8538653 L23.976949,85.8538653 Z" id="Shape" fill="#3F4854"></path>
                            <path d="M26.2514422,89.1700624 C25.87236,89.4543078 25.3037367,89.1700624 25.019425,88.69632 C24.6403428,88.2225775 24.6403428,87.5593381 25.019425,87.3698411 C25.3985072,87.0855957 25.9671305,87.3698411 26.2514422,87.8435836 C26.6305244,88.317326 26.6305244,88.8858169 26.2514422,89.1700624 L26.2514422,89.1700624 L26.2514422,89.1700624 Z" id="Shape" fill="#3F4854"></path>
                            <path d="M29.3788703,92.3915109 C29.0945586,92.7705049 28.4311648,92.6757564 27.8625415,92.202014 C27.3886888,91.7282715 27.1991477,91.0650321 27.5782299,90.7807867 C27.8625415,90.4017927 28.5259353,90.4965412 29.0945586,90.9702836 C29.5684114,91.3492776 29.6631819,92.012517 29.3788703,92.3915109 L29.3788703,92.3915109 L29.3788703,92.3915109 Z" id="Shape" fill="#3F4854"></path>
                            <path d="M33.643545,94.1917322 C33.5487745,94.6654746 32.8853806,94.8549716 32.2219868,94.6654746 C31.5585929,94.4759777 31.1795107,93.9074867 31.2742813,93.5284928 C31.3690518,93.0547504 32.0324457,92.8652534 32.6958395,93.0547504 C33.3592334,93.2442473 33.7383156,93.7179898 33.643545,94.1917322 L33.643545,94.1917322 L33.643545,94.1917322 Z" id="Shape" fill="#3F4854"></path>
                            <path d="M38.2873019,94.5707261 C38.2873019,95.0444686 37.7186786,95.4234625 37.0552848,95.4234625 C36.3918909,95.4234625 35.8232676,95.0444686 35.8232676,94.5707261 C35.8232676,94.0969837 36.3918909,93.7179898 37.0552848,93.7179898 C37.7186786,93.7179898 38.2873019,94.0969837 38.2873019,94.5707261 L38.2873019,94.5707261 L38.2873019,94.5707261 Z" id="Shape" fill="#3F4854"></path>
                            <path d="M42.6467472,93.8127383 C42.7415177,94.2864807 42.267665,94.7602231 41.6042711,94.8549716 C40.9408773,94.9497201 40.372254,94.6654746 40.2774835,94.1917322 C40.1827129,93.7179898 40.6565657,93.2442473 41.3199595,93.1494988 C41.9833533,93.0547504 42.5519766,93.3389958 42.6467472,93.8127383 L42.6467472,93.8127383 L42.6467472,93.8127383 Z" id="Shape" fill="#3F4854"></path>
                        </g>
                    </g>
                </g>
            </g>
        </g>
    </g>
</svg>
