<?xml version="1.0" encoding="UTF-8"?>
<svg width="107px" height="150px" viewBox="0 0 107 150" version="1.1" xmlns="http://www.w3.org/2000/svg" xmlns:xlink="http://www.w3.org/1999/xlink">
    <!-- Generator: sketchtool 40 (33762) - http://www.bohemiancoding.com/sketch -->
    <title>3CD297FF-B311-4FB1-B1CD-C332B8F77C84</title>
    <desc>Created with sketchtool.</desc>
    <defs></defs>
    <g id="Desktop" stroke="none" stroke-width="1" fill="none" fill-rule="evenodd" opacity="0.25">
        <g id="terria-io-web-homepage-copy-7" transform="translate(-247.000000, -2846.000000)" fill="#FFFFFF">
            <g id="Group-14" transform="translate(75.000000, 2708.000000)">
                <g id="Group-3" transform="translate(172.000000, 138.000000)">
                    <g id="github-fork">
                        <polygon id="Combined-Shape" points="89.2427863 35.9853357 89.2427863 53.9780036 71.2821893 53.9780036 71.2821893 35.9853357 53.5943181 35.9853357 53.5943181 17.9926679 71.2821893 17.9926679 71.2821893 0 89.2427863 0 89.2427863 17.9926679 106.930657 17.9926679 106.930657 35.9853357"></polygon>
                        <path d="M48.2932831,95.011086 C50.2307404,94.6625986 51.1804658,94.4906377 52.2259033,94.2961998 C77.013882,89.6859541 89.2427857,81.6017594 89.2427863,59.9755598 L71.2821893,59.9755593 C71.282189,70.0206524 66.1648029,73.4036168 48.9474395,76.6058252 C47.9511346,76.7911251 47.0482238,76.9546095 45.1111744,77.3030628 C22.7006191,81.3446051 13.6172127,85.7302407 12.0654671,101.05026 L29.9343101,102.866642 C30.2891044,99.3638422 33.9451276,97.598647 48.2932831,95.011086 Z" id="Line"></path>
                        <path d="M41.8024041,128.947453 C41.8024041,117.367781 32.5025131,107.956007 20.9998886,107.956007 C9.49726415,107.956007 0.197373134,117.367781 0.197373134,128.947453 C0.197373134,140.527125 9.49726415,149.938899 20.9998886,149.938899 C32.5025131,149.938899 41.8024041,140.527125 41.8024041,128.947453 L41.8024041,128.947453 Z M12.1711045,128.947453 C12.1711045,123.965332 16.1375982,119.951119 20.9998886,119.951119 C25.862179,119.951119 29.8286727,123.965332 29.8286727,128.947453 C29.8286727,133.929574 25.862179,137.943787 20.9998886,137.943787 C16.1375982,137.943787 12.1711045,133.929574 12.1711045,128.947453 L12.1711045,128.947453 Z" id="Oval"></path>
                        <path d="M41.8024041,20.9914458 C41.8024041,9.41177362 32.5025131,0 20.9998886,0 C9.49726415,0 0.197373134,9.41177362 0.197373134,20.9914458 C0.197373134,32.5711181 9.49726415,41.9828917 20.9998886,41.9828917 C32.5025131,41.9828917 41.8024041,32.5711181 41.8024041,20.9914458 L41.8024041,20.9914458 Z M12.1711045,20.9914458 C12.1711045,16.0093246 16.1375982,11.9951119 20.9998886,11.9951119 C25.862179,11.9951119 29.8286727,16.0093246 29.8286727,20.9914458 C29.8286727,25.9735671 25.862179,29.9877798 20.9998886,29.9877798 C16.1375982,29.9877798 12.1711045,25.9735671 12.1711045,20.9914458 L12.1711045,20.9914458 Z" id="Oval-Copy"></path>
                        <polygon id="Line" points="12.0195901 113.953563 29.9801871 113.953563 29.9801871 35.9853357 12.0195901 35.9853357"></polygon>
                    </g>
                </g>
            </g>
        </g>
    </g>
</svg>