<?xml version="1.0" encoding="UTF-8" standalone="no"?>
<svg width="18px" height="24px" viewBox="0 0 18 24" version="1.1" xmlns="http://www.w3.org/2000/svg" xmlns:xlink="http://www.w3.org/1999/xlink">
    <!-- Generator: Sketch 39.1 (31720) - http://www.bohemiancoding.com/sketch -->
    <title>github-fork</title>
    <desc>Created with Sketch.</desc>
    <defs></defs>
    <g id="Mobile" stroke="none" stroke-width="1" fill="#3f4854" fill-rule="evenodd">
        <g id="terria-io---homepage-copy-12" transform="translate(-245.000000, -4170.000000)" fill="#3f4854">
            <g id="Group-14" transform="translate(0.000000, 3709.000000)">
                <g id="Group-30" transform="translate(93.000000, 282.000000)">
                    <g id="Group-10">
                        <g id="Group-6" transform="translate(0.000000, 32.002959)">
                            <g id="Group-8" transform="translate(126.000000, 131.000000)">
                                <g id="github-fork" transform="translate(26.496000, 16.553254)">
                                    <polygon id="Combined-Shape" points="13.8675841 5.51775148 13.8675841 8.27662722 11.1075841 8.27662722 11.1075841 5.51775148 8.38949384 5.51775148 8.38949384 2.75887574 11.1075841 2.75887574 11.1075841 0 13.8675841 0 13.8675841 2.75887574 16.5856744 2.75887574 16.5856744 5.51775148"></polygon>
                                    <path d="M7.57488524,14.5683665 C7.87261378,14.5149318 8.01855782,14.4885644 8.17920991,14.4587506 C11.9883718,13.7518463 13.867584,12.5122698 13.8675841,9.1962525 L11.1075841,9.19625243 C11.1075841,10.7365 10.3211968,11.2552212 7.67540928,11.7462265 C7.52230738,11.7746392 7.38355733,11.7997068 7.08589148,11.8531363 C3.64206761,12.4728394 2.24622306,13.1453036 2.00776673,15.4943732 L4.75366692,15.7728852 C4.80818806,15.2357891 5.37000814,14.9651259 7.57488524,14.5683665 Z" id="Line"></path>
                                    <path d="M6.57743365,19.7719428 C6.57743365,17.9963931 5.14832196,16.5532544 3.38071683,16.5532544 C1.61311169,16.5532544 0.184,17.9963931 0.184,19.7719428 C0.184,21.5474925 1.61311169,22.9906312 3.38071683,22.9906312 C5.14832196,22.9906312 6.57743365,21.5474925 6.57743365,19.7719428 L6.57743365,19.7719428 Z M2.024,19.7719428 C2.024,19.0080175 2.63352999,18.3925049 3.38071683,18.3925049 C4.12790366,18.3925049 4.73743365,19.0080175 4.73743365,19.7719428 C4.73743365,20.5358681 4.12790366,21.1513807 3.38071683,21.1513807 C2.63352999,21.1513807 2.024,20.5358681 2.024,19.7719428 L2.024,19.7719428 Z" id="Oval"></path>
                                    <path d="M6.57743365,3.21868836 C6.57743365,1.44313862 5.14832196,0 3.38071683,0 C1.61311169,0 0.184,1.44313862 0.184,3.21868836 C0.184,4.9942381 1.61311169,6.43737673 3.38071683,6.43737673 C5.14832196,6.43737673 6.57743365,4.9942381 6.57743365,3.21868836 L6.57743365,3.21868836 Z M2.024,3.21868836 C2.024,2.45476311 2.63352999,1.83925049 3.38071683,1.83925049 C4.12790366,1.83925049 4.73743365,2.45476311 4.73743365,3.21868836 C4.73743365,3.98261362 4.12790366,4.59812623 3.38071683,4.59812623 C2.63352999,4.59812623 2.024,3.98261362 2.024,3.21868836 L2.024,3.21868836 Z" id="Oval-Copy"></path>
                                    <polygon id="Line" points="2.00071683 17.4728797 4.76071683 17.4728797 4.76071683 5.51775148 2.00071683 5.51775148"></polygon>
                                </g>
                            </g>
                        </g>
                    </g>
                </g>
            </g>
        </g>
    </g>
</svg>
