<?xml version="1.0" encoding="UTF-8" standalone="no"?>
<svg width="16px" height="21px" viewBox="0 0 16 21" version="1.1" xmlns="http://www.w3.org/2000/svg" xmlns:xlink="http://www.w3.org/1999/xlink">
    <!-- Generator: Sketch 39.1 (31720) - http://www.bohemiancoding.com/sketch -->
    <title>github-fork</title>
    <desc>Created with Sketch.</desc>
    <defs></defs>
    <g id="Page-2" stroke="none" stroke-width="1" fill="none" fill-rule="evenodd">
        <g id="terria-io---homepage" transform="translate(-278.000000, -3112.000000)" fill="#FFFFFF">
            <g id="Group-14" transform="translate(0.000000, 2652.000000)">
                <g id="Group-6-Copy-5" transform="translate(137.000000, 110.000000)">
                    <g id="Group-10" transform="translate(0.000000, 180.000000)">
                        <g id="Group-6" transform="translate(0.000000, 29.000000)">
                            <g id="Group-8" transform="translate(117.000000, 126.000000)">
                                <g id="github-fork" transform="translate(24.000000, 15.000000)">
                                    <polygon id="Combined-Shape" points="12.5612175 5 12.5612175 7.5 10.0612175 7.5 10.0612175 5 7.59917921 5 7.59917921 2.5 10.0612175 2.5 10.0612175 0 12.5612175 0 12.5612175 2.5 15.0232558 2.5 15.0232558 5"></polygon>
                                    <path d="M6.8613091,13.2013616 C7.13099074,13.1529409 7.26318643,13.1290477 7.40870462,13.1020314 C10.8590324,12.4614586 12.5612174,11.3381962 12.5612175,8.33333336 L10.0612175,8.3333333 C10.0612175,9.72905364 9.34891012,10.1991013 6.95236348,10.6440337 C6.81368422,10.6697803 6.68800483,10.6924957 6.41837996,10.7409117 C3.29897428,11.3024658 2.03462234,11.91183 1.81862928,14.0404776 L4.30585772,14.2928557 C4.35524281,13.8061574 4.8641378,13.5608915 6.8613091,13.2013616 Z" id="Line"></path>
                                    <path d="M5.95782034,17.9166667 C5.95782034,16.3077235 4.66333511,15 3.0622435,15 C1.4611519,15 0.166666667,16.3077235 0.166666667,17.9166667 C0.166666667,19.5256099 1.4611519,20.8333333 3.0622435,20.8333333 C4.66333511,20.8333333 5.95782034,19.5256099 5.95782034,17.9166667 L5.95782034,17.9166667 Z M1.83333333,17.9166667 C1.83333333,17.2244234 2.38544384,16.6666667 3.0622435,16.6666667 C3.73904317,16.6666667 4.29115367,17.2244234 4.29115367,17.9166667 C4.29115367,18.6089099 3.73904317,19.1666667 3.0622435,19.1666667 C2.38544384,19.1666667 1.83333333,18.6089099 1.83333333,17.9166667 L1.83333333,17.9166667 Z" id="Oval"></path>
                                    <path d="M5.95782034,2.91666667 C5.95782034,1.30772347 4.66333511,-4.54747351e-13 3.0622435,-4.54747351e-13 C1.4611519,-4.54747351e-13 0.166666667,1.30772347 0.166666667,2.91666667 C0.166666667,4.52560986 1.4611519,5.83333333 3.0622435,5.83333333 C4.66333511,5.83333333 5.95782034,4.52560986 5.95782034,2.91666667 L5.95782034,2.91666667 Z M1.83333333,2.91666667 C1.83333333,2.22442341 2.38544384,1.66666667 3.0622435,1.66666667 C3.73904317,1.66666667 4.29115367,2.22442341 4.29115367,2.91666667 C4.29115367,3.60890993 3.73904317,4.16666667 3.0622435,4.16666667 C2.38544384,4.16666667 1.83333333,3.60890993 1.83333333,2.91666667 L1.83333333,2.91666667 Z" id="Oval-Copy"></path>
                                    <polygon id="Line" points="1.8122435 15.8333333 4.3122435 15.8333333 4.3122435 5 1.8122435 5"></polygon>
                                </g>
                            </g>
                        </g>
                    </g>
                </g>
            </g>
        </g>
    </g>
</svg>